<svg xmlns="http://www.w3.org/2000/svg" xmlns:xlink="http://www.w3.org/1999/xlink" width="500" zoomAndPan="magnify" viewBox="0 0 375 374.999991" height="500" preserveAspectRatio="xMidYMid meet" version="1.0"><defs><clipPath id="504b06158a"><path d="M 13.402344 21.921875 L 159.652344 21.921875 L 159.652344 170.421875 L 13.402344 170.421875 Z M 13.402344 21.921875 " clip-rule="nonzero"/></clipPath><clipPath id="3b84916bdc"><path d="M 183.222656 203.136719 L 364.722656 203.136719 L 364.722656 360.636719 L 183.222656 360.636719 Z M 183.222656 203.136719 " clip-rule="nonzero"/></clipPath><clipPath id="f7da9352ab"><path d="M 13.402344 214.367188 L 159.523438 214.367188 L 159.523438 360.488281 L 13.402344 360.488281 Z M 13.402344 214.367188 " clip-rule="nonzero"/></clipPath><clipPath id="520346a99a"><path d="M 200.253906 21.921875 L 352 21.921875 L 352 174 L 200.253906 174 Z M 200.253906 21.921875 " clip-rule="nonzero"/></clipPath></defs><g clip-path="url(#504b06158a)"><path fill="#000000" d="M 13.40625 21.921875 L 13.40625 170.421875 L 159.648438 170.421875 L 159.648438 21.921875 L 13.40625 21.921875 M 154.921875 165.691406 L 18.035156 165.691406 L 18.035156 26.550781 L 154.921875 26.550781 L 154.921875 165.691406 " fill-opacity="1" fill-rule="nonzero"/></g><g clip-path="url(#3b84916bdc)"><path fill="#000000" d="M 364.722656 360.613281 L 183.222656 360.613281 L 273.972656 203.15625 Z M 191.609375 355.777344 L 356.335938 355.777344 L 273.972656 212.867188 Z M 191.609375 355.777344 " fill-opacity="1" fill-rule="nonzero"/></g><g clip-path="url(#f7da9352ab)"><path fill="#000000" d="M 86.464844 360.488281 C 66.957031 360.488281 48.589844 352.898438 34.808594 339.085938 C 20.996094 325.300781 13.402344 306.933594 13.402344 287.429688 C 13.402344 267.921875 20.996094 249.554688 34.808594 235.769531 C 48.589844 221.960938 66.957031 214.367188 86.464844 214.367188 C 105.96875 214.367188 124.335938 221.960938 138.121094 235.769531 C 151.933594 249.582031 159.523438 267.921875 159.523438 287.429688 C 159.523438 306.933594 151.933594 325.300781 138.121094 339.085938 C 124.335938 352.898438 105.96875 360.488281 86.464844 360.488281 Z M 86.464844 218.746094 C 68.125 218.746094 50.867188 225.902344 37.902344 238.867188 C 24.9375 251.832031 17.78125 269.089844 17.78125 287.429688 C 17.78125 305.765625 24.9375 323.023438 37.902344 335.988281 C 50.867188 348.953125 68.125 356.109375 86.464844 356.109375 C 104.800781 356.109375 122.058594 348.953125 135.023438 335.988281 C 147.988281 323.023438 155.144531 305.765625 155.144531 287.429688 C 155.144531 269.089844 147.988281 251.832031 135.023438 238.867188 C 122.058594 225.902344 104.800781 218.746094 86.464844 218.746094 Z M 86.464844 218.746094 " fill-opacity="1" fill-rule="nonzero"/></g><g clip-path="url(#520346a99a)"><path fill="#000000" d="M 300.988281 173.429688 L 203.28125 173.429688 C 201.632812 173.429688 200.261719 172.089844 200.261719 170.40625 C 200.261719 151.0625 202.113281 139.449219 210.960938 130.585938 C 219.296875 122.203125 233.597656 116.878906 258.394531 110.144531 L 258.394531 104.71875 C 250.128906 100.421875 243.921875 90.117188 241.039062 78.195312 C 239.257812 70.84375 238.707031 62.804688 239.738281 55.210938 C 240.765625 47.480469 243.441406 40.164062 248.035156 34.324219 C 253.96875 26.832031 263.058594 21.921875 275.886719 21.921875 C 288.710938 21.921875 297.800781 26.832031 303.734375 34.324219 C 308.328125 40.164062 311.003906 47.480469 312.035156 55.210938 C 313.0625 62.804688 312.515625 70.84375 310.730469 78.195312 C 307.847656 90.117188 301.640625 100.421875 293.375 104.71875 L 293.375 110.144531 C 318.171875 116.878906 332.472656 122.203125 340.808594 130.585938 C 349.65625 139.449219 351.507812 151.0625 351.507812 170.40625 C 351.507812 172.089844 350.136719 173.429688 348.492188 173.429688 Z M 206.332031 167.382812 L 345.4375 167.382812 C 345.265625 151.507812 343.484375 141.785156 336.519531 134.847656 C 328.90625 127.1875 314.777344 122.136719 289.742188 115.402344 C 288.367188 115.128906 287.339844 113.925781 287.339844 112.449219 L 287.339844 102.792969 C 287.339844 101.589844 288.058594 100.421875 289.261719 99.976562 C 296.53125 97.125 302.191406 87.816406 304.867188 76.785156 C 306.476562 70.121094 306.992188 62.871094 306.066406 56 C 305.175781 49.300781 302.910156 43.015625 299 38.101562 C 294.164062 31.988281 286.652344 27.96875 275.886719 27.96875 C 265.117188 27.96875 257.605469 31.988281 252.769531 38.101562 C 248.859375 43.015625 246.597656 49.300781 245.703125 56 C 244.777344 62.871094 245.292969 70.121094 246.90625 76.785156 C 249.546875 87.746094 255.171875 96.988281 262.371094 99.90625 C 263.574219 100.320312 264.429688 101.453125 264.429688 102.792969 L 264.429688 112.449219 C 264.429688 113.789062 263.539062 115.023438 262.199219 115.367188 C 237.0625 122.136719 222.898438 127.1875 215.25 134.847656 C 208.285156 141.785156 206.503906 151.507812 206.332031 167.382812 Z M 206.332031 167.382812 " fill-opacity="1" fill-rule="nonzero"/></g></svg>